<?xml version="1.0" standalone="no"?>
<!DOCTYPE svg PUBLIC "-//W3C//DTD SVG 20010904//EN"
 "http://www.w3.org/TR/2001/REC-SVG-20010904/DTD/svg10.dtd">
<svg version="1.0" xmlns="http://www.w3.org/2000/svg"
 width="300.000000pt" height="77.000000pt" viewBox="0 0 300.000000 77.000000"
 preserveAspectRatio="xMidYMid meet">
<metadata>
Created by potrace 1.10, written by Peter Selinger 2001-2011
</metadata>
<g transform="translate(0.000000,77.000000) scale(0.100000,-0.100000)"
fill="#9D2235" stroke="none">
<path d="M398 641 c-31 -27 -35 -28 -61 -15 -35 19 -59 7 -82 -43 -10 -21 -33
-62 -51 -91 -19 -29 -34 -60 -34 -69 0 -16 183 -265 219 -297 27 -24 45 -12
117 78 36 44 72 89 80 99 44 54 74 102 74 120 0 11 -13 35 -30 53 -16 19 -33
47 -36 62 -8 33 -42 72 -63 72 -9 1 -32 14 -51 30 -19 17 -38 30 -42 30 -4 0
-22 -13 -40 -29z m79 -31 c18 -26 33 -38 43 -34 8 3 19 6 24 7 4 1 16 -21 26
-50 10 -29 32 -64 49 -80 l32 -28 -117 -147 c-64 -82 -119 -148 -122 -148 -6
1 -196 253 -215 287 -6 10 -2 22 11 36 11 12 36 55 56 95 20 39 40 72 45 72 4
0 16 -9 26 -20 25 -28 39 -25 69 15 15 19 31 35 36 35 5 0 21 -18 37 -40z" fill = "white"/>
<path d="M392 572 c-6 -18 24 -42 54 -42 12 0 41 -7 64 -15 24 -8 45 -13 48
-10 11 11 -18 28 -47 29 -24 1 -30 5 -25 18 6 21 -12 32 -54 34 -22 0 -36 -5
-40 -14z"/>
<path d="M292 551 c-9 -6 -32 -45 -32 -55 0 -3 19 4 43 14 23 11 53 20 67 20
19 0 21 3 12 12 -13 13 -75 19 -90 9z"/>
<path d="M363 509 c-49 -9 -97 -31 -132 -60 -38 -31 -20 -31 30 1 48 32 118
52 105 32 -4 -7 -14 -12 -23 -12 -20 0 -113 -51 -113 -62 0 -4 23 4 50 18 28
15 53 24 56 21 3 -3 -17 -17 -45 -32 -30 -14 -49 -30 -45 -36 4 -7 10 -7 16
-1 7 7 17 7 29 -1 15 -9 23 -9 38 0 11 7 23 8 30 2 8 -6 8 -5 1 3 -21 25 -11
66 21 91 41 32 35 45 -18 36z" />
<path d="M401 473 c-26 -26 -31 -37 -22 -46 8 -8 11 -7 11 5 0 9 3 19 8 21 4
3 7 -5 7 -18 0 -13 -3 -21 -7 -18 -21 12 -5 -17 16 -30 33 -22 39 -10 14 24
l-22 29 22 30 c39 52 24 54 -27 3z"/>
<path d="M457 493 c-4 -10 -12 -25 -18 -34 -19 -25 -4 -46 47 -70 36 -17 50
-20 64 -11 13 8 21 7 30 -1 10 -9 12 -9 8 3 -5 16 -84 59 -110 60 -10 0 -18 5
-18 10 0 17 25 11 86 -20 67 -34 68 -34 58 -19 -3 6 -34 24 -68 40 -33 16 -52
29 -41 29 11 0 44 -13 73 -29 28 -16 52 -26 52 -23 -1 11 -73 59 -100 66 -14
4 -32 10 -41 12 -10 3 -19 -3 -22 -13z"/>
<path d="M266 361 c-11 -17 19 -28 84 -30 36 -1 71 -2 78 -1 6 0 21 0 32 0 11
0 27 0 35 0 40 0 61 5 67 14 13 19 9 27 -9 18 -22 -10 -253 -9 -270 1 -6 4
-14 3 -17 -2z"/>
<path d="M300 309 c0 -14 28 -30 35 -20 4 7 12 7 25 -2 16 -9 24 -9 40 1 16
10 24 10 40 0 15 -10 24 -10 39 -1 11 7 22 8 27 3 6 -6 14 -3 20 8 10 16 2 17
-107 17 -66 0 -119 -3 -119 -6z"/>
<path d="M481 271 c-8 -5 -45 -7 -82 -5 l-69 3 16 -25 c14 -20 19 -22 32 -12
12 10 16 10 19 1 3 -7 17 -13 31 -13 23 -1 24 -2 10 -11 -12 -7 -24 -6 -38 1
-27 14 -28 -10 -1 -34 18 -16 20 -16 39 9 12 15 18 33 15 42 -5 12 -2 15 8 11
9 -4 21 2 28 14 14 23 11 30 -8 19z" />
<path d="M855 536 c-42 -18 -93 -79 -101 -121 -17 -95 62 -195 155 -195 17 0
48 7 70 16 36 14 41 14 64 -1 23 -15 26 -14 54 9 30 25 31 25 48 7 13 -15 30
-19 73 -19 32 0 67 5 80 11 18 8 29 7 51 -6 37 -22 75 -22 111 0 27 16 31 16
69 -1 48 -22 93 -16 136 18 l29 23 40 -26 c34 -22 51 -26 120 -27 50 0 90 5
104 13 19 11 27 11 52 -2 34 -17 113 -15 150 5 17 9 28 8 55 -4 42 -20 79 -20
111 1 23 15 28 15 60 0 44 -21 73 -21 102 -1 21 14 26 14 63 -4 37 -19 44 -19
76 -6 21 9 47 13 65 9 39 -9 64 15 74 68 3 23 17 55 30 70 13 16 24 35 24 42
0 37 -88 59 -129 33 -15 -9 -25 -9 -46 0 -36 17 -76 15 -104 -4 -22 -16 -25
-16 -51 0 -35 20 -60 20 -103 0 -31 -15 -36 -15 -65 0 -39 20 -75 20 -112 1
-27 -14 -33 -14 -59 -1 -27 15 -30 14 -56 -10 -25 -23 -29 -24 -37 -10 -17 30
-47 39 -73 22 -36 -24 -45 -20 -45 18 0 26 -7 39 -28 54 -67 48 -149 33 -213
-38 l-35 -41 -46 12 c-41 11 -52 10 -87 -6 -38 -16 -42 -17 -65 -1 -32 20 -78
21 -117 1 -38 -20 -49 -13 -42 30 5 30 2 36 -21 46 -36 17 -70 -12 -61 -52 7
-33 -10 -47 -33 -26 -9 8 -29 17 -44 21 -18 4 -28 13 -28 25 0 21 -30 51 -51
51 -9 0 -23 -6 -33 -13 -16 -12 -24 -11 -54 5 -42 21 -85 23 -127 4z m127 -42
c27 -14 29 -17 15 -31 -14 -14 -18 -14 -38 1 -34 23 -72 20 -102 -9 -29 -30
-36 -58 -25 -102 15 -57 86 -82 135 -48 18 13 22 13 33 0 9 -11 7 -17 -12 -29
-58 -37 -128 -27 -173 25 -46 55 -28 160 33 193 36 20 96 20 134 0z m102 -41
l-7 -56 24 16 c31 22 55 21 79 -3 16 -16 20 -33 20 -91 0 -62 -2 -70 -17 -67
-15 3 -17 12 -15 59 3 42 0 60 -13 72 -38 39 -68 9 -69 -71 -1 -46 -4 -57 -18
-60 -16 -3 -18 8 -18 127 0 126 1 131 21 131 19 0 20 -4 13 -57z m206 32 c0
-19 -20 -29 -32 -17 -15 15 -2 43 17 36 8 -3 15 -12 15 -19z m615 5 c12 -10
13 -16 4 -27 -10 -11 -15 -11 -35 2 -83 54 -167 -41 -119 -134 16 -33 33 -41
80 -41 24 0 39 7 54 26 31 39 28 58 -9 51 -25 -6 -30 -3 -30 13 0 17 7 20 53
20 l52 0 -2 -72 c-1 -64 -3 -73 -20 -73 -11 0 -17 6 -15 17 2 14 -1 14 -35 -3
-45 -23 -63 -24 -108 -5 -51 22 -77 69 -72 130 4 42 10 55 42 84 35 32 41 34
90 30 30 -3 61 -10 70 -18z m-935 -62 c37 -12 40 -16 40 -49 l0 -37 -56 -7
c-66 -8 -84 3 -84 51 0 51 30 63 100 42z m870 -1 c0 -7 -5 -18 -12 -25 -9 -9
-9 -18 0 -37 16 -34 15 -35 -6 -35 -27 0 -42 20 -42 55 0 17 5 36 12 43 16 16
48 15 48 -1z m-552 -84 c-3 -74 -6 -88 -20 -91 -16 -3 -18 6 -18 87 0 85 1 91
20 91 20 0 21 -5 18 -87z m168 73 c27 -21 6 -43 -26 -26 -17 9 -26 8 -46 -5
-53 -34 -9 -124 46 -95 28 15 52 -2 32 -22 -21 -21 -89 -15 -114 10 -34 33
-31 97 5 128 32 27 74 31 103 10z m185 -15 c52 -52 26 -133 -47 -147 -46 -9
-94 35 -94 84 1 83 84 120 141 63z m389 -36 c0 -67 14 -89 50 -77 24 8 30 24
30 85 0 50 2 57 20 57 19 0 20 -7 20 -91 0 -83 -2 -90 -17 -84 -22 9 -31 9
-65 0 -21 -5 -32 -2 -52 19 -23 22 -26 34 -26 91 0 58 2 65 20 65 18 0 20 -7
20 -65z m273 54 c25 -11 47 -47 47 -74 0 -12 -15 -15 -65 -15 -52 0 -65 -3
-65 -15 0 -22 46 -38 71 -25 11 7 26 7 35 2 25 -14 -11 -37 -58 -37 -83 0
-116 97 -53 153 29 24 52 27 88 11z m173 -3 c27 -21 6 -43 -25 -26 -24 12 -41
6 -41 -14 0 -8 14 -16 32 -20 41 -8 58 -23 58 -52 0 -44 -66 -69 -106 -40 -26
20 -6 43 24 27 11 -6 28 -8 36 -5 28 11 17 31 -25 43 -44 13 -54 28 -45 65 9
35 58 46 92 22z m168 -6 c18 -18 -9 -34 -34 -20 -16 9 -25 9 -36 -1 -18 -15
-10 -23 38 -38 59 -19 61 -81 2 -95 -28 -7 -84 10 -84 26 0 15 27 20 48 9 14
-7 24 -7 37 3 18 13 18 14 -3 25 -11 6 -27 11 -36 11 -14 0 -46 36 -46 52 0 5
9 17 21 29 16 16 28 20 52 15 17 -4 36 -11 41 -16z m81 10 c4 -6 13 -5 24 2
23 14 53 4 45 -16 -3 -8 -11 -13 -19 -10 -26 11 -45 -25 -45 -87 0 -52 -2 -60
-17 -57 -15 3 -18 17 -21 91 -2 71 0 87 12 87 8 0 18 -4 21 -10z m-1275 -79
c0 -12 -21 -19 -37 -13 -22 8 -14 22 12 22 14 0 25 -4 25 -9z" />
<path d="M1562 393 c-21 -8 -33 -50 -23 -77 13 -31 39 -40 67 -21 52 34 13
121 -44 98z"/>
<path d="M2238 389 c-31 -17 -20 -29 27 -29 47 0 58 12 26 30 -24 12 -31 12
-53 -1z"/>
</g>
</svg>
